<svg width="184" height="220" viewBox="0 0 184 220" fill="none" xmlns="http://www.w3.org/2000/svg">
<path d="M119.598 19.0625C117.933 19.4788 120.585 19.3841 121.023 19.3321C123.055 19.0916 124.535 18.2144 126.34 17.3482C127.89 16.6041 129.646 15.5693 131.227 14.902C133.055 14.1312 134.838 13.9695 136.721 13.3419C140.618 12.0431 144.287 9.84161 148.105 8.31472C152.245 6.65867 154.568 5.34891 158.082 2.42078C160.356 1.53322 162.559 2.15184 164.727 3.32606C169.325 5.8167 170.182 7.92562 173.472 11.8588C176.831 15.8748 178.794 22.3048 180.084 27.4676C181.721 34.0154 182.496 45.0917 181.66 51.8961C180.904 58.0518 181.839 60.2438 177.844 64.9041C176.369 66.6251 175.07 68.6024 173.472 70.201C171.143 72.5292 168.126 74.0511 165.883 76.4608C163.462 79.0608 160.566 81.1421 157.812 83.3949C156.712 84.2953 150.851 90.1527 152.882 90.8297M117.865 19.0625C115.622 17.3001 112.811 15.7472 110.064 14.902C106.763 13.8865 103.438 13.8619 99.9132 13.8619C94.8213 13.8619 88.9813 14.7058 84.119 16.2888C79.6429 17.7462 75.4088 19.8878 71.0214 21.5664C64.131 24.2027 57.2332 26.5188 50.8357 30.2917C46.6836 32.7404 42.7023 35.9669 39.0093 39.0556C35.8064 41.7344 33.4081 44.7882 31.2278 48.301C29.2436 51.4976 26.8627 52.779 23.8892 54.9653C22.0716 56.3018 19.7425 57.6531 18.3805 59.4917C17.0304 61.3144 16.4719 63.7745 15.6647 65.8672C14.562 68.726 13.4886 71.5971 12.3903 74.4577C11.1304 77.7393 10.4311 81.1055 9.34704 84.435C8.17208 88.0438 7.17699 91.7405 6.40007 95.4524C6.13727 96.708 5.64438 97.8552 5.26366 99.0735C4.78025 100.62 4.84988 102.25 4.41617 103.812C3.51455 107.058 2.93697 110.345 2.41301 113.673C2.10427 115.635 1.44265 117.942 2.95232 119.452C4.4995 120.999 6.1877 121.957 8.30693 122.553C10.7033 123.227 13.1492 122.264 15.3951 123.574C17.8475 125.004 20.8028 125.546 23.4848 126.463C26.8234 127.604 30.3059 129.252 33.0191 131.548C33.6736 132.102 33.295 134.34 33.2502 135.034C33.1019 137.333 31.8256 139.348 31.1892 141.525C29.9596 145.732 28.4431 149.848 27.2985 154.083C25.7031 159.986 24.1671 165.91 23.0225 171.919C22.5069 174.626 21.8737 177.471 21.7898 180.24C21.7343 182.069 22.3997 183.112 22.8684 184.786M152.535 89.4429C149.674 91.6781 150.509 94.6277 150.455 98.0334C150.418 100.359 149.586 103.384 148.721 105.545C148.158 106.954 146.825 108.763 146.66 110.245C146.396 112.624 146.956 115.011 146.718 117.449C146.207 122.689 146.78 128.024 146.371 133.281C145.867 139.777 146.063 146.88 147.508 153.236C148.377 157.062 145.905 159.625 145.273 163.098C144.518 167.253 144.18 173.102 146.179 176.966C147.139 178.823 148.773 179.905 150.301 181.242C151.848 182.596 153.188 184.162 154.788 185.46C158.066 188.117 160.989 191.617 162.917 195.399C163.582 196.705 164.297 198.367 163.764 199.848C163.555 200.428 162.105 201.531 162.32 202.121C163.141 204.381 165.054 206.506 166.23 208.593C168.32 212.305 170.024 216.2 171.603 220.149M100.183 32.5838C100.183 24.6269 88.8528 28.7785 86.1414 32.9498C85.0698 34.5985 84.0883 36.0464 83.1945 37.7844C82.3484 39.4294 83.1623 39.5919 84.7739 38.8245C86.5686 37.9698 88.6851 37.7963 90.5523 37.091C93.9141 35.8209 98.5342 35.1648 100.876 32.2371M167.096 14.2086C167.075 12.8101 167.132 9.82995 165.363 9.08516C164.345 8.65678 162.241 10.9097 162.512 11.8588C163.086 13.8671 163.741 14.6467 161.356 15.4414C160.616 15.6881 156.538 15.8413 158.775 16.2888M170.91 13.1685V20.1026M172.99 30.5036C173.963 34.1527 173.313 36.0005 171.43 39.1712C169.501 42.4195 167.819 45.9035 166.037 49.2448C164.451 52.2191 162.64 55.6923 160.432 58.2397C157.122 62.0584 152.833 64.7871 148.798 67.7548C144.311 71.0545 140.169 74.7852 135.893 78.3484M172.99 36.0508C175.628 38.6882 179.093 41.3493 178.191 45.4118M52.1178 48.3507C51.9989 51.7402 50.937 55.1346 50.1251 58.3822C49.3375 61.5329 51.4479 63.9806 53.1368 66.3304C56.4187 70.8965 59.8692 75.2547 63.5306 79.532C69.3068 86.2799 75.3562 93.1809 79.1099 101.327C82.0342 107.674 85.1511 113.277 85.3258 120.439C85.4002 123.489 85.585 126.714 85.088 129.735C84.8248 131.334 84.5792 133.608 83.5822 134.988C82.9329 135.887 81.8577 136.417 80.763 136.551C77.3614 136.964 73.7161 136.073 70.3466 135.679C66.1986 135.194 62.1377 134.255 58.028 133.539C54.6129 132.943 51.2507 132.156 47.8154 131.659C44.4338 131.17 40.9106 130.958 37.6481 129.87" stroke="#80636D" stroke-width="2.5" stroke-linecap="round"/>
</svg>
